<?xml version="1.0" encoding="utf-8"?>
<!-- Generator: Adobe Illustrator 19.2.0, SVG Export Plug-In . SVG Version: 6.00 Build 0)  -->
<svg version="1.1" id="Calque_1" xmlns="http://www.w3.org/2000/svg" xmlns:xlink="http://www.w3.org/1999/xlink" x="0px" y="0px"
	 viewBox="0 0 132.5 160.5" style="enable-background:new 0 0 132.5 160.5;" xml:space="preserve">
<style type="text/css">
	.st0{fill:#FFFFFF;}
</style>
<g>
	<path d="M40.2,9.5h-5l0,0l7.3,8.3h6.7l-6.8-7.2c9.4,0,8.9-5.4,8.9-5.4c0-4.4-7.3-4.2-7.3-4.2H31.4l-3,16.8h5.4l2.8-15.4h5.3
		c0,0,3.5-0.1,3.5,3C45.4,5.3,45.4,9.5,40.2,9.5z"/>
	<polygon points="92,2.6 101.1,2.6 101.3,1 77.5,1 77.3,2.6 86.3,2.6 83.6,17.8 89.2,17.8 	"/>
	<path class="st0" d="M74.5,83"/>
	<path class="st0" d="M74.5,83"/>
	<g>
		<path d="M44.6,55.6c7.5-7.9,18.2-13.4,29.9-13.4c22.7,0,41,18.1,41,40.8c0,15.1-8.3,30.2-20.5,37.4c-1.7,5.8-2.9,10.1-3.5,17.5
			l0,0c23.8-7.2,40.9-28.6,40.9-54.8c0-32-25.8-56.9-57.8-56.9c-18.3,0-34.3,8.2-44.9,21.5C29.8,47.5,38.2,49.9,44.6,55.6"/>
	</g>
	<g>
		<g>
			<path d="M35.2,71.8c-1.2,3.9-1.6,6.8-1.6,11.2c0,23.5,18.6,41.3,41.3,41.3l0,0c-1.3,5.2-2,9.3-2.5,15.2
				c-4.4-0.1-8.6-0.4-12.7-1.3c-25-6-43.7-28.3-43.2-55.2c0.1-6.8,0.9-12.6,3.3-18.7C19.8,64.3,28.5,64.9,35.2,71.8z"/>
		</g>
	</g>
	<g>
		<path d="M73.9,70.1c0,0,0.4,4.2,0.8,6.9c0,0,0,0.8,1.2,1.2l3.2,1c0,0,2.3,0.7,2,3.1l-0.3,3.8c0,0,1.2-1.9,3.2-1.8
			c0,0,2.7,0.3,2.6,3c0,0-0.2,2.8,0.7,3.6c0,0,0.7,1.4,4.9,1.8c1.9,0.1,3.4,1.1,3.4,1.1c3.1,2.4,1,6.4,1,6.4s-6.1,13.2-8.8,25.8
			c0,0-5.6,19.9-0.4,34.4H80c-7.9-24.3,8.1-57.9,8.1-57.9s1.8-3.3-0.6-3.8c-0.9-0.2-1-0.2-2.1-0.4c0,0-4-0.2-3.1-5.2
			c0.7-3.6-2.3-1.8-2.3-1.8c-3.2,1.7-3.4-0.8-3.4-0.8c-0.1-1.3-0.4-3.4-0.4-3.4c-0.1-1.4-1-1.5-1-1.5L71.7,85
			c-2.7-0.6-2.7-3.1-2.7-3.1l-0.5-6.3c-0.1-2.8-2.8-2-2.8-2c-1.6,0.4-6.8,1.2-6.8,1.2s-3,0.8-7.6-0.3c-3.5-1-7.9-3.3-13-7.6
			c-5-4.4-11.4-6.8-11.4-6.8C13.6,55.7,0,61.5,0,61.5v-7.7c0,0,11.4-6.1,27.4-1.2c0,0,8,1.9,16.8,9.4c0,0,2.9,2.5,6.3,4.3
			c0,0,3.4,2.1,8.6,1.3c6.4-1,10.1-1.1,10.1-1.1S73.6,66,73.9,70.1z"/>
	</g>
	<path d="M67.8,0.5L52.4,17.8H55l3.5-4H69l2.2,4h5.9L67.8,0.5z M59.9,12.3L65,6.5l3.2,5.8H59.9z"/>
	<path d="M125.6,5.2c0-4.4-7.3-4.2-7.3-4.2h-12.7l-3,16.8h5.4l1.3-6.9h7.4C126,10.9,125.6,5.2,125.6,5.2z M114.4,9.4h-4.9l1.2-7h5.3
		c0,0,3.5-0.1,3.5,3C119.6,5.3,119.6,9.4,114.4,9.4z"/>
</g>
</svg>
